# xmcd CD database file
#
# Track frame offsets:
#	150
#	11682
#	23607
#	39257
#	49595
#	62930
#	74215
#	85512
#	95460
#	106855
#	120187
#	130972
#	140920
#	152387
#	169527
#	180555
#	192830
#	204652
#	218287
#	228705
#
# Disc length: 3209 seconds
#
# Revision: 3
# Processed by: cddbd v1.5.2PL0 Copyright (c) Steve Scherf et al.
# Submitted via: Feurio! 1.68 - http://www.feurio.com
#
DISCID=060c8714
DTITLE=Various Artist - Die groﬂe Parade der Country und Western Hits CD1_3
DYEAR=1900
DGENRE=Country
TTITLE0=Bobby Bare - Music City U.S.A
TTITLE1=Dave Dudley - The Most Beautiful Girl
TTITLE2=Karen O'Donnell - I Know What It¥s All About Now, Mama
TTITLE3=David Price - Jack Knife
TTITLE4=George Kent - Mama Bake A Pie, Daddy Kill A Chicken
TTITLE5=Ferlin Husky - The Bridge I Have Never Crossed
TTITLE6=Freddy Quinn - Jambalaya
TTITLE7=Ronnie Rogers - The Fool On The Stool
TTITLE8=Bobby Meredith - A New Girl In Town
TTITLE9=Linda Manning - If Only For A Moment
TTITLE10=Dave Dudley - You Don¥t Have To Be A Baby To Cry
TTITLE11=Johnny Hill - Oh, Susanna
TTITLE12=Billy Grammer - Mabel You Have Been A Friend To Me
TTITLE13=Bobby Bare - Sylvia¥s Mother
TTITLE14=Dave Dudley - Get Me Back To Tennessee
TTITLE15=Bobby Bare - Roses Are Red My Love
TTITLE16=Dave Dudley - Six Days On The Road
TTITLE17=Freddy Quinn - Green Green Grass Of Home
TTITLE18=Linda Manning - Bonjur Tristesse
TTITLE19=David Price - I Need A Friend
EXTD=
EXTT0=
EXTT1=
EXTT2=
EXTT3=
EXTT4=
EXTT5=
EXTT6=
EXTT7=
EXTT8=
EXTT9=
EXTT10=
EXTT11=
EXTT12=
EXTT13=
EXTT14=
EXTT15=
EXTT16=
EXTT17=
EXTT18=
EXTT19=
PLAYORDER=
